<svg xmlns="http://www.w3.org/2000/svg" xmlns:xlink="http://www.w3.org/1999/xlink" width="500" zoomAndPan="magnify" viewBox="0 0 375 374.999991" height="500" preserveAspectRatio="xMidYMid meet" version="1.0"><defs><g/><clipPath id="200f253966"><path d="M 121.886719 115.4375 L 253.136719 115.4375 L 253.136719 210.6875 L 121.886719 210.6875 Z M 121.886719 115.4375 " clip-rule="nonzero"/></clipPath></defs><g clip-path="url(#200f253966)"><path fill="#30628b" d="M 250.417969 210.648438 L 124.605469 210.648438 C 123.128906 210.648438 121.886719 209.40625 121.886719 207.921875 C 121.886719 206.441406 123.128906 205.199219 124.605469 205.199219 L 141.632812 205.199219 C 134.671875 195.535156 130.996094 184.152344 130.996094 172.148438 C 130.996094 140.917969 156.324219 115.472656 187.511719 115.472656 C 218.703125 115.472656 244.027344 140.871094 244.027344 172.148438 C 244.027344 184.152344 240.355469 195.535156 233.394531 205.199219 L 250.417969 205.199219 C 251.898438 205.199219 253.136719 206.441406 253.136719 207.921875 C 253.136719 209.453125 251.898438 210.648438 250.417969 210.648438 Z M 124.605469 207.207031 C 124.175781 207.207031 123.84375 207.539062 123.84375 207.972656 C 123.84375 208.402344 124.175781 208.738281 124.605469 208.738281 L 250.371094 208.738281 C 250.800781 208.738281 251.136719 208.402344 251.136719 207.972656 C 251.136719 207.539062 250.800781 207.207031 250.371094 207.207031 L 231.390625 207.207031 C 231.007812 207.207031 230.675781 207.015625 230.53125 206.679688 C 230.390625 206.34375 230.390625 205.960938 230.628906 205.628906 C 238.066406 195.964844 242.027344 184.441406 242.027344 172.195312 C 242.027344 142.019531 217.558594 117.484375 187.464844 117.484375 C 157.371094 117.484375 132.90625 142.019531 132.90625 172.195312 C 132.90625 184.394531 136.863281 195.964844 144.304688 205.628906 C 144.542969 205.914062 144.589844 206.34375 144.398438 206.679688 C 144.257812 207.015625 143.875 207.207031 143.539062 207.207031 Z M 226.957031 207.207031 L 148.070312 207.207031 C 147.785156 207.207031 147.5 207.0625 147.308594 206.871094 C 139.011719 197.210938 134.480469 184.917969 134.480469 172.195312 C 134.480469 142.878906 158.277344 119.011719 187.511719 119.011719 C 216.75 119.011719 240.546875 142.878906 240.546875 172.195312 C 240.546875 184.917969 235.96875 197.210938 227.71875 206.871094 C 227.527344 207.0625 227.242188 207.207031 226.957031 207.207031 Z M 148.546875 205.246094 L 226.527344 205.246094 C 234.300781 196.015625 238.59375 184.296875 238.59375 172.195312 C 238.59375 143.980469 215.699219 120.972656 187.511719 120.972656 C 159.328125 120.972656 136.433594 143.929688 136.433594 172.195312 C 136.433594 184.296875 140.726562 196.015625 148.546875 205.246094 Z M 148.546875 205.246094 " fill-opacity="1" fill-rule="nonzero"/></g><path fill="#30628b" d="M 201.296875 191.039062 L 182.125 191.039062 C 178.738281 191.039062 175.925781 188.265625 175.925781 184.824219 C 175.925781 181.378906 178.691406 178.605469 182.125 178.605469 L 201.296875 178.605469 C 204.683594 178.605469 207.496094 181.378906 207.496094 184.824219 C 207.496094 188.265625 204.683594 191.039062 201.296875 191.039062 Z M 182.125 180.613281 C 179.789062 180.613281 177.878906 182.527344 177.878906 184.871094 C 177.878906 187.214844 179.789062 189.128906 182.125 189.128906 L 201.296875 189.128906 C 203.632812 189.128906 205.542969 187.214844 205.542969 184.871094 C 205.542969 182.527344 203.632812 180.613281 201.296875 180.613281 Z M 182.125 180.613281 " fill-opacity="1" fill-rule="nonzero"/><path fill="#30628b" d="M 178.308594 207.160156 C 178.023438 207.160156 177.738281 207.109375 177.449219 207.015625 C 176.78125 206.777344 176.210938 206.296875 175.875 205.628906 C 175.542969 204.957031 175.496094 204.242188 175.734375 203.570312 L 180.359375 189.703125 C 180.503906 189.222656 180.980469 188.984375 181.457031 189.03125 C 181.648438 189.078125 181.886719 189.078125 182.125 189.078125 L 184.9375 189.078125 C 185.273438 189.078125 185.558594 189.222656 185.75 189.511719 C 185.941406 189.75 185.988281 190.085938 185.890625 190.371094 L 180.933594 205.292969 C 180.550781 206.394531 179.5 207.160156 178.308594 207.160156 Z M 181.980469 191.039062 L 177.59375 204.191406 C 177.546875 204.382812 177.546875 204.574219 177.640625 204.765625 C 177.738281 204.957031 177.878906 205.101562 178.070312 205.148438 C 178.453125 205.292969 178.882812 205.054688 179.023438 204.671875 L 183.554688 191.039062 L 182.078125 191.039062 C 182.078125 191.039062 182.027344 191.039062 181.980469 191.039062 Z M 181.980469 191.039062 " fill-opacity="1" fill-rule="nonzero"/><path fill="#30628b" d="M 205.0625 207.160156 C 203.917969 207.160156 202.871094 206.394531 202.488281 205.292969 L 197.527344 190.371094 C 197.433594 190.085938 197.480469 189.75 197.671875 189.511719 C 197.863281 189.269531 198.148438 189.078125 198.484375 189.078125 L 201.296875 189.078125 C 201.535156 189.078125 201.726562 189.078125 201.964844 189.03125 C 202.441406 188.9375 202.917969 189.222656 203.0625 189.703125 L 207.6875 203.570312 C 207.925781 204.242188 207.878906 205.007812 207.542969 205.628906 C 207.210938 206.296875 206.6875 206.777344 205.96875 207.015625 C 205.636719 207.109375 205.351562 207.160156 205.0625 207.160156 Z M 199.816406 191.039062 L 204.347656 204.671875 C 204.492188 205.054688 204.921875 205.292969 205.300781 205.148438 C 205.492188 205.101562 205.636719 204.957031 205.730469 204.765625 C 205.828125 204.574219 205.828125 204.382812 205.78125 204.191406 L 201.390625 191.039062 C 201.34375 191.039062 201.296875 191.039062 201.25 191.039062 Z M 199.816406 191.039062 " fill-opacity="1" fill-rule="nonzero"/><path fill="#30628b" d="M 204.015625 181.378906 C 203.824219 181.378906 203.679688 181.332031 203.492188 181.234375 C 202.824219 180.851562 202.058594 180.613281 201.296875 180.613281 L 194.332031 180.613281 C 193.902344 180.613281 193.523438 180.328125 193.378906 179.898438 L 187.085938 155.746094 C 186.988281 155.457031 187.085938 155.121094 187.273438 154.882812 C 187.464844 154.644531 187.75 154.5 188.039062 154.5 L 195.621094 154.5 C 196.050781 154.5 196.480469 154.789062 196.574219 155.21875 C 196.621094 155.363281 197.101562 156.941406 199.246094 156.941406 C 201.488281 156.941406 201.917969 155.21875 201.917969 155.21875 C 202.011719 154.789062 202.441406 154.5 202.871094 154.5 L 210.453125 154.5 C 210.738281 154.5 211.027344 154.644531 211.214844 154.882812 C 211.40625 155.121094 211.457031 155.457031 211.40625 155.746094 L 204.921875 180.613281 C 204.824219 180.902344 204.636719 181.140625 204.347656 181.285156 C 204.253906 181.332031 204.109375 181.378906 204.015625 181.378906 Z M 195.097656 178.652344 L 201.296875 178.652344 C 202.011719 178.652344 202.679688 178.75 203.347656 178.988281 L 209.214844 156.507812 L 203.539062 156.507812 C 202.964844 157.609375 201.628906 158.996094 199.246094 158.996094 C 196.859375 158.996094 195.527344 157.65625 194.953125 156.507812 L 189.277344 156.507812 Z M 195.097656 178.652344 " fill-opacity="1" fill-rule="nonzero"/><path fill="#30628b" d="M 167.148438 196.972656 L 141.203125 196.972656 C 140.824219 196.972656 140.488281 196.78125 140.34375 196.445312 C 136.480469 188.886719 134.527344 180.757812 134.527344 172.195312 C 134.527344 171.671875 134.957031 171.191406 135.527344 171.191406 L 169.820312 171.191406 C 170.34375 171.191406 170.820312 171.621094 170.820312 172.195312 L 170.820312 193.335938 C 170.773438 195.34375 169.152344 196.972656 167.148438 196.972656 Z M 141.777344 194.960938 L 167.148438 194.960938 C 168.054688 194.960938 168.816406 194.246094 168.816406 193.289062 L 168.816406 173.105469 L 136.480469 173.105469 C 136.578125 180.851562 138.390625 188.171875 141.777344 194.960938 Z M 141.777344 194.960938 " fill-opacity="1" fill-rule="nonzero"/><path fill="#30628b" d="M 158.277344 179.847656 L 136.101562 179.847656 C 135.578125 179.847656 135.097656 179.417969 135.097656 178.84375 L 135.097656 172.195312 C 135.097656 171.671875 135.527344 171.191406 136.101562 171.191406 L 158.277344 171.191406 C 158.800781 171.191406 159.28125 171.621094 159.28125 172.195312 L 159.28125 178.84375 C 159.28125 179.417969 158.800781 179.847656 158.277344 179.847656 Z M 137.101562 177.886719 L 157.324219 177.886719 L 157.324219 173.199219 L 137.101562 173.199219 Z M 137.101562 177.886719 " fill-opacity="1" fill-rule="nonzero"/><path fill="#30628b" d="M 147.214844 176.167969 C 146.210938 176.167969 145.449219 175.351562 145.449219 174.398438 C 145.449219 173.390625 146.257812 172.628906 147.214844 172.628906 C 148.214844 172.628906 148.976562 173.441406 148.976562 174.398438 C 148.976562 175.351562 148.167969 176.167969 147.214844 176.167969 Z M 147.214844 174.15625 C 147.117188 174.15625 147.023438 174.253906 147.023438 174.347656 C 147.023438 174.445312 147.117188 174.539062 147.214844 174.539062 C 147.308594 174.539062 147.402344 174.445312 147.402344 174.347656 C 147.402344 174.253906 147.308594 174.15625 147.214844 174.15625 Z M 147.214844 174.15625 " fill-opacity="1" fill-rule="nonzero"/><path fill="#30628b" d="M 153.222656 173.152344 L 141.203125 173.152344 C 140.679688 173.152344 140.203125 172.722656 140.203125 172.148438 L 140.203125 172.003906 C 140.203125 168.132812 143.351562 165.023438 147.164062 165.023438 C 151.027344 165.023438 154.128906 168.179688 154.128906 172.003906 L 154.128906 172.195312 C 154.175781 172.722656 153.746094 173.152344 153.222656 173.152344 Z M 142.253906 171.191406 L 152.171875 171.191406 C 151.792969 168.800781 149.691406 166.984375 147.214844 166.984375 C 144.683594 166.984375 142.632812 168.800781 142.253906 171.191406 Z M 142.253906 171.191406 " fill-opacity="1" fill-rule="nonzero"/><path fill="#30628b" d="M 155.605469 155.410156 C 155.367188 155.410156 155.082031 155.3125 154.890625 155.121094 L 154.75 154.980469 C 152.03125 152.253906 152.03125 147.804688 154.75 145.078125 C 156.085938 143.738281 157.800781 143.023438 159.660156 143.023438 C 161.519531 143.023438 163.285156 143.738281 164.574219 145.078125 L 164.714844 145.222656 C 165.097656 145.605469 165.097656 146.226562 164.714844 146.609375 L 156.226562 155.121094 C 156.132812 155.3125 155.84375 155.410156 155.605469 155.410156 Z M 159.757812 145.03125 C 158.421875 145.03125 157.132812 145.558594 156.226562 146.515625 C 154.460938 148.285156 154.273438 151.058594 155.703125 153.019531 L 162.714844 145.988281 C 161.808594 145.316406 160.804688 145.03125 159.757812 145.03125 Z M 159.757812 145.03125 " fill-opacity="1" fill-rule="nonzero"/><path fill="#30628b" d="M 162.902344 154.214844 C 162.664062 154.214844 162.378906 154.117188 162.1875 153.925781 L 160.425781 152.15625 C 160.042969 151.773438 160.042969 151.152344 160.425781 150.769531 C 160.804688 150.386719 161.425781 150.386719 161.808594 150.769531 L 163.570312 152.539062 C 163.953125 152.921875 163.953125 153.542969 163.570312 153.925781 C 163.429688 154.117188 163.191406 154.214844 162.902344 154.214844 Z M 162.902344 154.214844 " fill-opacity="1" fill-rule="nonzero"/><path fill="#30628b" d="M 159.039062 158.085938 C 158.660156 158.085938 158.277344 157.847656 158.136719 157.464844 L 157.132812 154.929688 C 156.941406 154.453125 157.179688 153.878906 157.65625 153.640625 C 158.136719 153.449219 158.707031 153.6875 158.945312 154.167969 L 159.945312 156.699219 C 160.136719 157.179688 159.898438 157.753906 159.421875 157.992188 C 159.28125 158.085938 159.183594 158.085938 159.039062 158.085938 Z M 159.039062 158.085938 " fill-opacity="1" fill-rule="nonzero"/><path fill="#30628b" d="M 166.765625 150.339844 C 166.625 150.339844 166.527344 150.339844 166.386719 150.246094 L 163.859375 149.238281 C 163.332031 149.046875 163.09375 148.476562 163.332031 147.949219 C 163.523438 147.421875 164.097656 147.183594 164.621094 147.421875 L 167.148438 148.425781 C 167.671875 148.617188 167.910156 149.191406 167.671875 149.71875 C 167.53125 150.101562 167.148438 150.339844 166.765625 150.339844 Z M 166.765625 150.339844 " fill-opacity="1" fill-rule="nonzero"/><path fill="#30628b" d="M 147.214844 159.234375 C 145.6875 159.234375 144.445312 157.992188 144.445312 156.460938 C 144.445312 154.929688 145.6875 153.6875 147.214844 153.6875 C 148.738281 153.6875 149.980469 154.929688 149.980469 156.460938 C 149.980469 157.992188 148.738281 159.234375 147.214844 159.234375 Z M 147.214844 155.695312 C 146.785156 155.695312 146.402344 156.078125 146.402344 156.507812 C 146.402344 156.941406 146.785156 157.324219 147.214844 157.324219 C 147.640625 157.324219 148.023438 156.941406 148.023438 156.507812 C 148.023438 156.03125 147.640625 155.695312 147.214844 155.695312 Z M 147.214844 155.695312 " fill-opacity="1" fill-rule="nonzero"/><path fill="#30628b" d="M 147.214844 155.695312 C 146.976562 155.695312 146.734375 155.601562 146.546875 155.410156 C 146.164062 155.027344 146.117188 154.40625 146.496094 154.023438 L 154.796875 145.125 C 155.179688 144.742188 155.796875 144.695312 156.179688 145.078125 C 156.5625 145.460938 156.609375 146.082031 156.226562 146.464844 L 147.929688 155.363281 C 147.738281 155.554688 147.453125 155.695312 147.214844 155.695312 Z M 147.214844 155.695312 " fill-opacity="1" fill-rule="nonzero"/><path fill="#30628b" d="M 147.214844 166.984375 C 146.6875 166.984375 146.210938 166.554688 146.210938 165.980469 L 146.210938 158.230469 C 146.210938 157.707031 146.640625 157.226562 147.214844 157.226562 C 147.738281 157.226562 148.214844 157.65625 148.214844 158.230469 L 148.214844 165.980469 C 148.167969 166.554688 147.738281 166.984375 147.214844 166.984375 Z M 147.214844 166.984375 " fill-opacity="1" fill-rule="nonzero"/><path fill="#30628b" d="M 164.382812 207.160156 C 164 207.160156 163.667969 206.96875 163.476562 206.585938 L 158.613281 196.398438 C 158.46875 196.109375 158.46875 195.726562 158.660156 195.441406 C 158.851562 195.152344 159.136719 194.960938 159.46875 194.960938 L 164.335938 194.960938 C 164.859375 194.960938 165.335938 195.394531 165.335938 195.964844 L 165.335938 206.152344 C 165.335938 206.632812 165.003906 207.015625 164.574219 207.109375 C 164.527344 207.160156 164.429688 207.160156 164.382812 207.160156 Z M 161.042969 196.972656 L 163.382812 201.847656 L 163.382812 196.972656 Z M 161.042969 196.972656 " fill-opacity="1" fill-rule="nonzero"/><path fill="#30628b" d="M 238.542969 162.871094 L 215.984375 162.871094 C 214.507812 162.871094 213.265625 161.628906 213.265625 160.144531 L 213.265625 127.429688 C 213.265625 127.097656 213.457031 126.761719 213.746094 126.570312 C 214.03125 126.378906 214.410156 126.378906 214.746094 126.570312 C 215.9375 127.289062 217.128906 128.050781 218.273438 128.914062 C 218.511719 129.105469 218.703125 129.390625 218.703125 129.726562 L 218.703125 157.464844 L 237.734375 157.464844 C 238.164062 157.464844 238.542969 157.753906 238.6875 158.183594 C 239.019531 159.332031 239.308594 160.527344 239.546875 161.722656 C 239.59375 162.007812 239.546875 162.296875 239.355469 162.535156 C 239.117188 162.726562 238.832031 162.871094 238.542969 162.871094 Z M 215.222656 129.199219 L 215.222656 160.144531 C 215.222656 160.574219 215.558594 160.910156 215.984375 160.910156 L 237.304688 160.910156 C 237.210938 160.382812 237.066406 159.90625 236.921875 159.378906 L 217.75 159.378906 C 217.226562 159.378906 216.75 158.949219 216.75 158.375 L 216.75 130.203125 C 216.273438 129.871094 215.746094 129.535156 215.222656 129.199219 Z M 215.222656 129.199219 " fill-opacity="1" fill-rule="nonzero"/><g fill="#30628b" fill-opacity="1"><g transform="translate(157.816678, 242.711542)"><g><path d="M 6.140625 0.140625 C 5.203125 0.140625 4.351562 -0.0195312 3.59375 -0.34375 C 2.84375 -0.675781 2.25 -1.144531 1.8125 -1.75 C 1.382812 -2.363281 1.171875 -3.070312 1.171875 -3.875 L 3.640625 -3.875 C 3.691406 -3.269531 3.929688 -2.769531 4.359375 -2.375 C 4.785156 -1.988281 5.378906 -1.796875 6.140625 -1.796875 C 6.941406 -1.796875 7.5625 -1.988281 8 -2.375 C 8.445312 -2.757812 8.671875 -3.253906 8.671875 -3.859375 C 8.671875 -4.328125 8.53125 -4.707031 8.25 -5 C 7.976562 -5.300781 7.632812 -5.53125 7.21875 -5.6875 C 6.8125 -5.851562 6.242188 -6.035156 5.515625 -6.234375 C 4.597656 -6.472656 3.851562 -6.71875 3.28125 -6.96875 C 2.707031 -7.21875 2.21875 -7.601562 1.8125 -8.125 C 1.414062 -8.65625 1.21875 -9.359375 1.21875 -10.234375 C 1.21875 -11.035156 1.414062 -11.738281 1.8125 -12.34375 C 2.21875 -12.957031 2.785156 -13.425781 3.515625 -13.75 C 4.242188 -14.070312 5.085938 -14.234375 6.046875 -14.234375 C 7.410156 -14.234375 8.523438 -13.890625 9.390625 -13.203125 C 10.265625 -12.523438 10.75 -11.59375 10.84375 -10.40625 L 8.296875 -10.40625 C 8.253906 -10.925781 8.007812 -11.363281 7.5625 -11.71875 C 7.113281 -12.082031 6.523438 -12.265625 5.796875 -12.265625 C 5.140625 -12.265625 4.601562 -12.097656 4.1875 -11.765625 C 3.769531 -11.429688 3.5625 -10.945312 3.5625 -10.3125 C 3.5625 -9.882812 3.691406 -9.53125 3.953125 -9.25 C 4.210938 -8.96875 4.546875 -8.742188 4.953125 -8.578125 C 5.359375 -8.421875 5.910156 -8.25 6.609375 -8.0625 C 7.535156 -7.8125 8.289062 -7.554688 8.875 -7.296875 C 9.46875 -7.046875 9.96875 -6.648438 10.375 -6.109375 C 10.789062 -5.578125 11 -4.867188 11 -3.984375 C 11 -3.265625 10.804688 -2.585938 10.421875 -1.953125 C 10.035156 -1.328125 9.472656 -0.820312 8.734375 -0.4375 C 8.003906 -0.0507812 7.140625 0.140625 6.140625 0.140625 Z M 6.140625 0.140625 "/></g></g></g><g fill="#30628b" fill-opacity="1"><g transform="translate(178.104933, 242.711542)"><g><path d="M 12.375 0 L 10.640625 -1.734375 C 9.960938 -1.066406 9.222656 -0.566406 8.421875 -0.234375 C 7.628906 0.0976562 6.742188 0.265625 5.765625 0.265625 C 4.765625 0.265625 3.878906 0.09375 3.109375 -0.25 C 2.347656 -0.601562 1.753906 -1.109375 1.328125 -1.765625 C 0.910156 -2.421875 0.703125 -3.179688 0.703125 -4.046875 C 0.703125 -5.015625 0.976562 -5.878906 1.53125 -6.640625 C 2.082031 -7.398438 2.90625 -8.003906 4 -8.453125 C 3.613281 -8.921875 3.335938 -9.359375 3.171875 -9.765625 C 3.015625 -10.179688 2.9375 -10.640625 2.9375 -11.140625 C 2.9375 -11.765625 3.09375 -12.316406 3.40625 -12.796875 C 3.71875 -13.285156 4.171875 -13.671875 4.765625 -13.953125 C 5.359375 -14.234375 6.046875 -14.375 6.828125 -14.375 C 7.628906 -14.375 8.304688 -14.222656 8.859375 -13.921875 C 9.421875 -13.617188 9.835938 -13.203125 10.109375 -12.671875 C 10.390625 -12.148438 10.503906 -11.566406 10.453125 -10.921875 L 8.140625 -10.921875 C 8.160156 -11.421875 8.039062 -11.804688 7.78125 -12.078125 C 7.53125 -12.359375 7.179688 -12.5 6.734375 -12.5 C 6.285156 -12.5 5.921875 -12.363281 5.640625 -12.09375 C 5.367188 -11.832031 5.234375 -11.515625 5.234375 -11.140625 C 5.234375 -10.773438 5.335938 -10.410156 5.546875 -10.046875 C 5.753906 -9.691406 6.125 -9.234375 6.65625 -8.671875 L 10.375 -4.96875 L 11.8125 -7.34375 L 14.296875 -7.34375 L 12.46875 -4.21875 L 11.96875 -3.390625 L 15.390625 0 Z M 5.765625 -1.703125 C 7.023438 -1.703125 8.144531 -2.21875 9.125 -3.25 L 5.390625 -7 C 3.804688 -6.363281 3.015625 -5.40625 3.015625 -4.125 C 3.015625 -3.4375 3.269531 -2.859375 3.78125 -2.390625 C 4.289062 -1.929688 4.953125 -1.703125 5.765625 -1.703125 Z M 5.765625 -1.703125 "/></g></g></g><g fill="#30628b" fill-opacity="1"><g transform="translate(201.565066, 242.711542)"><g><path d="M 0.75 -7.0625 C 0.75 -8.4375 1.066406 -9.664062 1.703125 -10.75 C 2.347656 -11.84375 3.21875 -12.695312 4.3125 -13.3125 C 5.414062 -13.925781 6.617188 -14.234375 7.921875 -14.234375 C 9.421875 -14.234375 10.753906 -13.863281 11.921875 -13.125 C 13.085938 -12.394531 13.929688 -11.359375 14.453125 -10.015625 L 11.6875 -10.015625 C 11.320312 -10.753906 10.816406 -11.304688 10.171875 -11.671875 C 9.523438 -12.035156 8.773438 -12.21875 7.921875 -12.21875 C 6.992188 -12.21875 6.164062 -12.003906 5.4375 -11.578125 C 4.707031 -11.160156 4.132812 -10.5625 3.71875 -9.78125 C 3.3125 -9 3.109375 -8.09375 3.109375 -7.0625 C 3.109375 -6.019531 3.3125 -5.109375 3.71875 -4.328125 C 4.132812 -3.546875 4.707031 -2.941406 5.4375 -2.515625 C 6.164062 -2.085938 6.992188 -1.875 7.921875 -1.875 C 8.773438 -1.875 9.523438 -2.054688 10.171875 -2.421875 C 10.816406 -2.785156 11.320312 -3.335938 11.6875 -4.078125 L 14.453125 -4.078125 C 13.929688 -2.734375 13.085938 -1.695312 11.921875 -0.96875 C 10.753906 -0.238281 9.421875 0.125 7.921875 0.125 C 6.597656 0.125 5.390625 -0.179688 4.296875 -0.796875 C 3.210938 -1.410156 2.347656 -2.265625 1.703125 -3.359375 C 1.066406 -4.453125 0.75 -5.6875 0.75 -7.0625 Z M 0.75 -7.0625 "/></g></g></g><g fill="#30628b" fill-opacity="1"><g transform="translate(140.599865, 260.610422)"><g><path d="M 5.207031 -5.511719 L 4.519531 -5.511719 L 4.519531 -2.988281 L 1.484375 -2.988281 L 1.484375 -5.511719 L 0.796875 -5.511719 L 0.796875 0 L 1.484375 0 L 1.484375 -2.414062 L 4.519531 -2.414062 L 4.519531 0 L 5.207031 0 Z M 5.207031 -5.511719 "/></g></g></g><g fill="#30628b" fill-opacity="1"><g transform="translate(149.181681, 260.610422)"><g><path d="M 2.980469 -5.625 C 1.300781 -5.625 0.375 -4.441406 0.375 -2.753906 C 0.375 -1.078125 1.300781 0.113281 2.980469 0.113281 C 4.65625 0.113281 5.582031 -1.078125 5.582031 -2.753906 C 5.582031 -4.441406 4.65625 -5.625 2.980469 -5.625 Z M 2.980469 -0.429688 C 1.820312 -0.429688 1.140625 -1.324219 1.140625 -2.753906 C 1.140625 -4.195312 1.820312 -5.078125 2.980469 -5.078125 C 4.136719 -5.078125 4.816406 -4.195312 4.816406 -2.753906 C 4.816406 -1.324219 4.136719 -0.429688 2.980469 -0.429688 Z M 2.980469 -0.429688 "/></g></g></g><g fill="#30628b" fill-opacity="1"><g transform="translate(157.819356, 260.610422)"><g><path d="M 4.886719 -5.511719 L 4.203125 -5.511719 L 4.203125 -2.101562 C 4.203125 -1.925781 4.203125 -1.757812 4.183594 -1.613281 C 4.121094 -0.917969 3.667969 -0.429688 2.820312 -0.429688 C 1.972656 -0.429688 1.519531 -0.917969 1.453125 -1.613281 C 1.4375 -1.757812 1.4375 -1.925781 1.4375 -2.101562 L 1.4375 -5.511719 L 0.75 -5.511719 L 0.75 -2.035156 C 0.75 -1.859375 0.75 -1.703125 0.765625 -1.542969 C 0.847656 -0.621094 1.46875 0.113281 2.820312 0.113281 C 4.167969 0.113281 4.792969 -0.621094 4.871094 -1.542969 C 4.886719 -1.703125 4.886719 -1.859375 4.886719 -2.035156 Z M 4.886719 -5.511719 "/></g></g></g><g fill="#30628b" fill-opacity="1"><g transform="translate(166.018104, 260.610422)"><g><path d="M 2.507812 -5.625 C 1.492188 -5.625 0.671875 -5.023438 0.671875 -4.074219 C 0.671875 -3.164062 1.351562 -2.773438 2.324219 -2.546875 C 3.289062 -2.324219 3.675781 -2.019531 3.675781 -1.351562 C 3.675781 -0.773438 3.164062 -0.429688 2.53125 -0.429688 C 1.8125 -0.429688 1.308594 -0.839844 1.148438 -1.566406 L 0.414062 -1.566406 C 0.535156 -0.503906 1.300781 0.113281 2.515625 0.113281 C 3.578125 0.113281 4.410156 -0.511719 4.410156 -1.476562 C 4.410156 -2.414062 3.800781 -2.90625 2.589844 -3.1875 C 1.75 -3.378906 1.40625 -3.632812 1.40625 -4.234375 C 1.40625 -4.808594 1.867188 -5.078125 2.453125 -5.078125 C 3.148438 -5.078125 3.554688 -4.679688 3.617188 -3.984375 L 4.351562 -3.984375 C 4.25 -4.929688 3.648438 -5.625 2.507812 -5.625 Z M 2.507812 -5.625 "/></g></g></g><g fill="#30628b" fill-opacity="1"><g transform="translate(173.44275, 260.610422)"><g><path d="M 4.464844 -0.558594 L 1.484375 -0.558594 L 1.484375 -2.476562 L 4.144531 -2.476562 L 4.144531 -3.035156 L 1.484375 -3.035156 L 1.484375 -4.953125 L 4.386719 -4.953125 L 4.386719 -5.511719 L 0.796875 -5.511719 L 0.796875 0 L 4.464844 0 Z M 4.464844 -0.558594 "/></g></g></g><g fill="#30628b" fill-opacity="1"><g transform="translate(180.88336, 260.610422)"><g/></g></g><g fill="#30628b" fill-opacity="1"><g transform="translate(185.363213, 260.610422)"><g><path d="M 2.515625 -2.820312 L 5.015625 -5.511719 L 4.210938 -5.511719 L 1.484375 -2.578125 L 1.484375 -5.511719 L 0.796875 -5.511719 L 0.796875 0 L 1.484375 0 L 1.484375 -1.789062 L 2.011719 -2.355469 L 3.90625 0 L 4.871094 0 Z M 2.515625 -2.820312 "/></g></g></g><g fill="#30628b" fill-opacity="1"><g transform="translate(192.97939, 260.610422)"><g><path d="M 4.464844 -0.558594 L 1.484375 -0.558594 L 1.484375 -2.476562 L 4.144531 -2.476562 L 4.144531 -3.035156 L 1.484375 -3.035156 L 1.484375 -4.953125 L 4.386719 -4.953125 L 4.386719 -5.511719 L 0.796875 -5.511719 L 0.796875 0 L 4.464844 0 Z M 4.464844 -0.558594 "/></g></g></g><g fill="#30628b" fill-opacity="1"><g transform="translate(200.42, 260.610422)"><g><path d="M 4.464844 -0.558594 L 1.484375 -0.558594 L 1.484375 -2.476562 L 4.144531 -2.476562 L 4.144531 -3.035156 L 1.484375 -3.035156 L 1.484375 -4.953125 L 4.386719 -4.953125 L 4.386719 -5.511719 L 0.796875 -5.511719 L 0.796875 0 L 4.464844 0 Z M 4.464844 -0.558594 "/></g></g></g><g fill="#30628b" fill-opacity="1"><g transform="translate(207.860611, 260.610422)"><g><path d="M 3.226562 -5.480469 C 2.980469 -5.511719 2.789062 -5.511719 2.507812 -5.511719 L 0.796875 -5.511719 L 0.796875 0 L 1.484375 0 L 1.484375 -2.253906 L 2.507812 -2.253906 C 2.789062 -2.253906 2.980469 -2.253906 3.226562 -2.285156 C 4.027344 -2.386719 4.65625 -2.949219 4.65625 -3.882812 C 4.65625 -4.816406 4.105469 -5.367188 3.226562 -5.480469 Z M 3.1875 -2.867188 C 3.035156 -2.835938 2.820312 -2.828125 2.570312 -2.828125 L 1.484375 -2.828125 L 1.484375 -4.9375 L 2.570312 -4.9375 C 2.820312 -4.9375 3.035156 -4.929688 3.1875 -4.894531 C 3.578125 -4.808594 3.921875 -4.519531 3.921875 -3.882812 C 3.921875 -3.242188 3.578125 -2.957031 3.1875 -2.867188 Z M 3.1875 -2.867188 "/></g></g></g><g fill="#30628b" fill-opacity="1"><g transform="translate(215.389009, 260.610422)"><g><path d="M 1.484375 0 L 1.484375 -5.511719 L 0.796875 -5.511719 L 0.796875 0 Z M 1.484375 0 "/></g></g></g><g fill="#30628b" fill-opacity="1"><g transform="translate(220.251929, 260.610422)"><g><path d="M 5.113281 0 L 5.097656 -5.511719 L 4.425781 -5.511719 L 4.425781 -2.753906 C 4.425781 -2.109375 4.433594 -1.316406 4.449219 -0.671875 L 1.851562 -5.511719 L 0.796875 -5.511719 L 0.796875 0 L 1.484375 0 L 1.484375 -2.753906 C 1.484375 -3.402344 1.476562 -4.195312 1.460938 -4.839844 L 4.058594 0 Z M 5.113281 0 "/></g></g></g><g fill="#30628b" fill-opacity="1"><g transform="translate(228.73798, 260.610422)"><g><path d="M 3.1875 -2.660156 L 3.1875 -2.101562 L 4.472656 -2.101562 C 4.472656 -1.117188 3.808594 -0.429688 2.914062 -0.429688 C 1.828125 -0.429688 1.140625 -1.40625 1.140625 -2.765625 C 1.140625 -4.097656 1.835938 -5.078125 2.964844 -5.078125 C 3.882812 -5.078125 4.371094 -4.542969 4.527344 -3.753906 L 4.542969 -3.675781 L 5.230469 -3.675781 L 5.222656 -3.753906 C 5.113281 -4.832031 4.378906 -5.625 2.980469 -5.625 C 1.414062 -5.625 0.375 -4.410156 0.375 -2.730469 C 0.375 -1.117188 1.269531 0.113281 2.875 0.113281 C 3.507812 0.113281 3.992188 -0.0976562 4.304688 -0.449219 L 4.554688 -0.957031 L 4.554688 0 L 5.160156 0 L 5.160156 -2.660156 Z M 3.1875 -2.660156 "/></g></g></g></svg>